<svg width="20" height="13" viewBox="0 0 20 13" fill="none" xmlns="http://www.w3.org/2000/svg">
<path d="M19 4.30148e-06H0V2H2.3L5.821 11.683C5.96168 12.0685 6.21731 12.4015 6.55335 12.6371C6.88939 12.8726 7.28964 12.9993 7.7 13H16V11H7.7L6.972 9H16C16.4 9 16.762 8.762 16.919 8.394L19.919 1.394C19.9847 1.24194 20.0116 1.0759 19.9971 0.910872C19.9827 0.74584 19.9273 0.587005 19.8362 0.448692C19.745 0.31038 19.6208 0.196942 19.4748 0.11861C19.3288 0.0402788 19.1657 -0.000482036 19 4.30148e-06Z" fill="white"/>
</svg>
