<svg width="20" height="21" viewBox="0 0 20 21" fill="none" xmlns="http://www.w3.org/2000/svg">
<path d="M18.7384 10.0315L19.8424 8.11518C19.9751 7.88462 20.0112 7.61058 19.9427 7.35331C19.8743 7.09603 19.7069 6.87659 19.4774 6.74323L17.5674 5.63442V3.42483C17.5674 3.15846 17.462 2.903 17.2745 2.71464C17.087 2.52629 16.8326 2.42047 16.5674 2.42047H14.3684L13.2654 0.503156C13.1322 0.273074 12.9141 0.104933 12.6584 0.0351249C12.5316 0.000590955 12.3992 -0.00831378 12.2689 0.00892681C12.1386 0.0261674 12.013 0.0692105 11.8994 0.135561L9.98939 1.24437L8.07939 0.134556C7.84971 0.00137615 7.57677 -0.034715 7.32059 0.0342219C7.06442 0.103159 6.846 0.271478 6.71339 0.502151L5.60939 2.42047H3.41039C3.14517 2.42047 2.89082 2.52629 2.70328 2.71464C2.51575 2.903 2.41039 3.15846 2.41039 3.42483V5.63341L0.50039 6.74223C0.386423 6.80807 0.286531 6.89588 0.206455 7.00061C0.126379 7.10534 0.0676967 7.22493 0.0337796 7.35251C-0.00013759 7.48009 -0.00862102 7.61315 0.00881666 7.74403C0.0262543 7.87491 0.0692693 8.00105 0.13539 8.11518L1.23939 10.0315L0.13539 11.9478C0.00337926 12.1786 -0.0324375 12.4524 0.0357489 12.7096C0.103935 12.9668 0.270595 13.1865 0.499391 13.3208L2.40939 14.4296V16.6382C2.40939 16.9045 2.51475 17.16 2.70228 17.3484C2.88982 17.5367 3.14417 17.6425 3.40939 17.6425H5.60939L6.71339 19.5608C6.80192 19.7128 6.92833 19.8391 7.08017 19.9271C7.23201 20.0152 7.40406 20.062 7.57939 20.063C7.75339 20.063 7.92639 20.0168 8.08039 19.9274L9.98839 18.8186L11.8984 19.9274C12.128 20.0604 12.4008 20.0965 12.6569 20.0278C12.9129 19.9591 13.1314 19.7911 13.2644 19.5608L14.3674 17.6425H16.5664C16.8316 17.6425 17.086 17.5367 17.2735 17.3484C17.461 17.16 17.5664 16.9045 17.5664 16.6382V14.4296L19.4764 13.3208C19.5902 13.2547 19.6899 13.1668 19.7698 13.0621C19.8497 12.9573 19.9083 12.8378 19.9422 12.7103C19.9761 12.5828 19.9846 12.4498 19.9673 12.319C19.95 12.1881 19.9072 12.062 19.8414 11.9478L18.7384 10.0315ZM7.48839 4.99966C7.88635 4.9998 8.26795 5.1587 8.54926 5.44142C8.83056 5.72414 8.98852 6.10751 8.98839 6.50721C8.98826 6.9069 8.83004 7.29017 8.54855 7.5727C8.26706 7.85523 7.88535 8.01388 7.48739 8.01374C7.08943 8.01361 6.70783 7.8547 6.42652 7.57199C6.14522 7.28927 5.98726 6.90589 5.98739 6.5062C5.98752 6.10651 6.14574 5.72324 6.42723 5.44071C6.70872 5.15818 7.09043 4.99953 7.48839 4.99966ZM7.78839 14.6415L6.18839 13.4373L12.1884 5.40241L13.7884 6.60664L7.78839 14.6415ZM12.4884 15.0432C12.2913 15.0432 12.0962 15.0041 11.9142 14.9283C11.7322 14.8525 11.5668 14.7415 11.4275 14.6015C11.2882 14.4615 11.1778 14.2953 11.1024 14.1125C11.0271 13.9296 10.9883 13.7336 10.9884 13.5357C10.9885 13.3378 11.0273 13.1418 11.1028 12.959C11.1783 12.7762 11.2888 12.6101 11.4282 12.4702C11.5676 12.3303 11.7331 12.2194 11.9151 12.1437C12.0972 12.068 12.2923 12.0291 12.4894 12.0292C12.8873 12.0293 13.269 12.1882 13.5503 12.4709C13.8316 12.7536 13.9895 13.137 13.9894 13.5367C13.9893 13.9364 13.831 14.3197 13.5496 14.6022C13.2681 14.8847 12.8863 15.0434 12.4884 15.0432Z" fill="#464646"/>
</svg>
