<svg width="22" height="21" viewBox="0 0 22 21" fill="none" xmlns="http://www.w3.org/2000/svg">
<path fill-rule="evenodd" clip-rule="evenodd" d="M7.08612 13.3758C6.90925 13.3863 6.81001 13.412 6.77265 13.4283C6.40257 13.5976 5.18782 14.0383 4.36768 14.332V18.4764C4.78796 18.4572 5.26079 18.4408 5.52638 18.4514C6.70669 18.4986 7.59805 18.7736 8.43104 19.038L8.50459 19.0614C9.30897 19.317 10.0596 19.5558 11.0467 19.6305C11.3497 19.6538 11.6141 19.6801 11.8616 19.7052C12.1557 19.7378 12.4506 19.7629 12.746 19.7805C13.248 19.8062 13.6333 19.7788 13.945 19.6643C14.3302 19.5231 15.7195 18.8734 17.1146 18.1653C17.7587 17.8411 18.3955 17.5027 19.0246 17.1502C19.2551 17.0213 19.4819 16.8858 19.7047 16.7439C19.8955 16.6196 19.9878 16.5455 20.0129 16.5198C20.1168 16.413 20.1909 16.1182 20.0549 15.8526C19.9603 15.6675 19.6965 15.3967 18.9551 15.5193C18.0971 15.6611 17.0767 16.0796 16.0744 16.4906C15.5882 16.6902 15.1043 16.8881 14.6764 17.0311C14.2654 17.1683 13.8241 17.2845 13.4459 17.2617C12.8972 17.2284 11.9305 17.0837 11.1285 16.9529C10.6683 16.8778 10.2087 16.7992 9.74969 16.7171L9.66038 16.7013L9.62944 16.6955L9.73393 16.1211L9.62885 16.6955L9.74093 15.5374L12.8697 15.5753C12.8727 15.5753 12.8767 15.5753 12.8826 15.5741C12.9036 15.5724 12.9456 15.5671 13.0063 15.5514C13.1254 15.5204 13.3215 15.448 13.5644 15.2741C13.6484 15.214 13.7512 15.1095 13.844 14.9741C13.9199 14.8631 13.9765 14.7517 14.0098 14.6571C13.5837 14.6401 13.1602 14.5844 12.7442 14.4907C12.5436 14.4468 12.3446 14.3958 12.1477 14.3378L12.1208 14.3296L8.28802 13.4698H8.28685C8.22594 13.4589 8.16483 13.4492 8.10356 13.4406C7.94502 13.4174 7.78578 13.3992 7.62607 13.3863C7.44651 13.371 7.26614 13.3675 7.08612 13.3758ZM8.40418 12.8971L8.51101 12.3239L8.52151 12.3257L12.4255 13.2013L12.4494 13.2094L12.4565 13.2118L12.4833 13.2199L12.593 13.2515C12.6894 13.2783 12.8283 13.3139 12.9935 13.3501C13.3285 13.4237 13.7512 13.4914 14.1458 13.4914C14.51 13.4914 14.8865 13.6274 15.0879 13.9963C15.2607 14.3127 15.2204 14.6606 15.1556 14.9011C15.0751 15.2011 14.9081 15.5163 14.6962 15.7843C15.0096 15.6639 15.3214 15.5394 15.6314 15.4107L15.7032 15.3815C16.6506 14.9922 17.7737 14.531 18.7643 14.3676C19.8967 14.1802 20.7204 14.5911 21.0939 15.3202C21.4267 15.9693 21.3496 16.821 20.8488 17.3341C20.7233 17.4631 20.5318 17.5985 20.3398 17.7229C20.0977 17.8778 19.8513 18.0257 19.6008 18.1665C18.9559 18.5277 18.3031 18.8745 17.6429 19.2067C16.2589 19.9089 14.8077 20.5919 14.3466 20.7606C13.8119 20.9561 13.2375 20.9748 12.6859 20.9462C12.3529 20.9255 12.0205 20.8973 11.6888 20.8616C11.4459 20.8365 11.2026 20.8141 10.9592 20.7945C9.83374 20.7092 8.96982 20.4343 8.17478 20.1815L8.07788 20.1506C7.25657 19.8897 6.49246 19.6585 5.47968 19.6176C5.13528 19.6042 4.27895 19.6486 3.8178 19.6754L3.20021 19.7116V13.5083L3.58839 13.3705C4.37935 13.0892 5.91281 12.5376 6.28815 12.3665C6.52281 12.2597 6.79425 12.2235 7.01899 12.2101C7.25152 12.1988 7.48455 12.2029 7.71655 12.2223C7.97613 12.243 8.23461 12.2758 8.49116 12.3204L8.50517 12.3227L8.50867 12.3233H8.51101L8.40418 12.8977V12.8971Z" fill="black"/>
<path fill-rule="evenodd" clip-rule="evenodd" d="M0.281715 13.371C0.281715 13.0614 0.404716 12.7645 0.623658 12.5455C0.8426 12.3266 1.13955 12.2036 1.44918 12.2036H3.20038C3.51001 12.2036 3.80696 12.3266 4.0259 12.5455C4.24484 12.7645 4.36784 13.0614 4.36784 13.371V19.7898C4.36784 20.0994 4.24484 20.3963 4.0259 20.6153C3.80696 20.8342 3.51001 20.9572 3.20038 20.9572H1.44918C1.13955 20.9572 0.8426 20.8342 0.623658 20.6153C0.404716 20.3963 0.281715 20.0994 0.281715 19.7898V13.3716V13.371ZM1.44918 13.371V19.7898H3.20038V13.3716H1.44918V13.371ZM8.04477 7.57926L8.05644 7.56758C8.12665 7.49691 8.16591 7.40124 8.16558 7.30162C8.16526 7.202 8.12537 7.1066 8.05469 7.03639C7.98402 6.96618 7.88835 6.92692 7.78873 6.92725C7.68911 6.92758 7.59371 6.96747 7.5235 7.03814L6.37938 8.18984C6.27077 8.2991 6.14162 8.38578 5.99935 8.44489C5.85709 8.504 5.70454 8.53437 5.55048 8.53425H4.04153C3.94199 8.53425 3.84652 8.57379 3.77613 8.64418C3.70574 8.71457 3.66619 8.81004 3.66619 8.90958C3.66619 9.00913 3.70574 9.1046 3.77613 9.17499C3.84652 9.24538 3.94199 9.28492 4.04153 9.28492H5.65264C5.88761 9.28492 6.12018 9.23763 6.33649 9.14587C6.5528 9.05411 6.74844 8.91976 6.91175 8.75081L8.04419 7.57926H8.04477ZM5.55107 7.3662H4.04095C3.6317 7.3662 3.2392 7.52877 2.94982 7.81816C2.66043 8.10755 2.49785 8.50004 2.49785 8.90929C2.49785 9.31855 2.66043 9.71104 2.94982 10.0004C3.2392 10.2898 3.6317 10.4524 4.04095 10.4524H5.65205C6.04363 10.4525 6.43122 10.3737 6.79174 10.2209C7.15226 10.0681 7.47834 9.84425 7.75057 9.56278L8.88301 8.39123C9.17159 8.10111 9.33309 7.70823 9.332 7.29903C9.3309 6.88982 9.1673 6.49782 8.87717 6.20924C8.58705 5.92066 8.19417 5.75916 7.78497 5.76025C7.37577 5.76135 6.98376 5.92495 6.69518 6.21508L5.55048 7.3662H5.55107ZM15.8907 4.03017C16.0858 4.03569 16.2799 4.00204 16.4617 3.93121C16.6435 3.86038 16.8093 3.75382 16.9492 3.61781C17.0891 3.48181 17.2003 3.31913 17.2762 3.1394C17.3522 2.95967 17.3913 2.76654 17.3913 2.57142C17.3913 2.3763 17.3522 2.18317 17.2762 2.00344C17.2003 1.82371 17.0891 1.66103 16.9492 1.52503C16.8093 1.38902 16.6435 1.28246 16.4617 1.21163C16.2799 1.14081 16.0858 1.10716 15.8907 1.11267C15.511 1.12342 15.1504 1.28182 14.8856 1.55421C14.6208 1.82661 14.4727 2.19153 14.4727 2.57142C14.4727 2.95131 14.6208 3.31623 14.8856 3.58863C15.1504 3.86102 15.511 4.01942 15.8907 4.03017ZM18.5175 2.57142C18.5249 2.92096 18.4624 3.26845 18.3337 3.59353C18.2051 3.91861 18.0128 4.21473 17.7682 4.46454C17.5236 4.71434 17.2316 4.91281 16.9093 5.0483C16.587 5.1838 16.2409 5.25359 15.8913 5.25359C15.5417 5.25359 15.1956 5.1838 14.8733 5.0483C14.551 4.91281 14.259 4.71434 14.0144 4.46454C13.7698 4.21473 13.5775 3.91861 13.4489 3.59353C13.3202 3.26845 13.2577 2.92096 13.2651 2.57142C13.2796 1.88449 13.5626 1.23058 14.0536 0.749894C14.5445 0.269204 15.2042 0 15.8913 0C16.5784 0 17.2381 0.269204 17.729 0.749894C18.22 1.23058 18.503 1.88449 18.5175 2.57142ZM14.1267 10.0403L14.1693 10.0823C14.4262 10.324 14.7682 10.4545 15.1208 10.4454L15.1435 10.4471C15.151 10.4485 15.1587 10.4493 15.1663 10.4495L16.9975 10.4471C17.4104 10.4467 17.8062 10.2824 18.0979 9.99012C18.3896 9.69789 18.5532 9.30175 18.5528 8.88886C18.5524 8.47597 18.388 8.08014 18.0958 7.78846C17.8036 7.49677 17.4074 7.33312 16.9946 7.33351H15.8528C15.736 7.33351 14.8896 6.44215 14.2592 5.75918C14.0374 5.51788 13.7682 5.32507 13.4683 5.19287C13.1684 5.06067 12.8445 4.99194 12.5167 4.99099H9.68214L9.95533 10.4489H11.755C12.1193 10.4485 12.4798 10.3748 12.815 10.2323C13.1501 10.0893 13.6638 9.66085 13.7058 9.61882C13.7455 9.57913 14.0876 9.99299 14.1238 10.0368L14.1267 10.0403ZM12.3568 9.15884L12.3842 9.14425C12.4843 9.08476 12.5811 9.02007 12.6743 8.95045C12.7547 8.89063 12.8334 8.82854 12.9102 8.76424C13.3071 8.3924 13.777 8.43559 13.9609 8.4747C14.1524 8.51556 14.2884 8.59495 14.338 8.62472C14.422 8.6761 14.5008 8.73554 14.5732 8.80218C14.6596 8.87981 14.7425 8.96971 14.798 9.031C14.8598 9.0993 14.9176 9.16643 14.9585 9.21488L14.9818 9.2429C14.9939 9.25245 15.0073 9.26031 15.0215 9.26624M12.3568 9.15825C12.1659 9.23939 11.961 9.28084 11.7538 9.28201H11.0656L10.9097 6.15845H12.5167C12.846 6.15845 13.1676 6.29855 13.4011 6.55131C13.7192 6.89571 14.0992 7.30082 14.4191 7.62362C14.5767 7.78298 14.7332 7.93592 14.8663 8.055C14.9305 8.11162 15.0093 8.17992 15.0928 8.24004C15.133 8.26923 15.1984 8.31418 15.2807 8.35737L15.2842 8.35913C15.3321 8.38481 15.5527 8.50097 15.8528 8.50097H16.9946C17.0978 8.50082 17.1969 8.54169 17.27 8.6146C17.3432 8.6875 17.3843 8.78648 17.3845 8.88974C17.3846 8.993 17.3438 9.09209 17.2709 9.16522C17.198 9.23835 17.099 9.27952 16.9957 9.27967L15.2212 9.28142C15.1878 9.27896 15.1543 9.27779 15.1208 9.27792H15.0904C15.0669 9.27881 15.0434 9.27483 15.0215 9.26624" fill="black"/>
</svg>
