<svg width="22" height="21" viewBox="0 0 22 21" fill="none" xmlns="http://www.w3.org/2000/svg">
<path d="M20.9466 10.8396L11.4903 0.332548C11.092 -0.110849 10.3271 -0.110849 9.92891 0.332548L0.472576 10.8396C0.33671 10.9905 0.247502 11.1776 0.215745 11.3782C0.183989 11.5788 0.211045 11.7843 0.29364 11.9698C0.376235 12.1554 0.510829 12.313 0.681135 12.4236C0.851442 12.5343 1.05016 12.5932 1.25325 12.5932H3.35466V19.9481C3.35466 20.2268 3.46536 20.4941 3.6624 20.6911C3.85945 20.8882 4.1267 20.9988 4.40536 20.9988H17.0138C17.2925 20.9988 17.5597 20.8882 17.7568 20.6911C17.9538 20.4941 18.0645 20.2268 18.0645 19.9481V12.5932H20.1659C20.3694 12.5941 20.5688 12.5357 20.7396 12.4253C20.9105 12.3148 21.0456 12.157 21.1284 11.9711C21.2111 11.7852 21.238 11.5792 21.2057 11.3783C21.1734 11.1774 21.0834 10.9902 20.9466 10.8396ZM10.7096 14.6946C9.87359 14.6946 9.07184 14.3625 8.48071 13.7714C7.88957 13.1803 7.55747 12.3785 7.55747 11.5425C7.55747 10.7065 7.88957 9.90477 8.48071 9.31363C9.07184 8.7225 9.87359 8.3904 10.7096 8.3904C11.5456 8.3904 12.3473 8.7225 12.9385 9.31363C13.5296 9.90477 13.8617 10.7065 13.8617 11.5425C13.8617 12.3785 13.5296 13.1803 12.9385 13.7714C12.3473 14.3625 11.5456 14.6946 10.7096 14.6946Z" fill="#2E4297"/>
</svg>
