<svg width="22" height="22" viewBox="0 0 22 22" fill="none" xmlns="http://www.w3.org/2000/svg">
<path d="M19.3584 0C19.9544 0 20.526 0.236772 20.9475 0.658229C21.3689 1.07969 21.6057 1.65131 21.6057 2.24734V4.33586C21.606 5.02602 21.4156 5.70284 21.0555 6.29162C20.6954 6.8804 20.1796 7.35824 19.5651 7.6724L13.2876 10.8786C14.3917 11.3789 15.2911 12.2422 15.8361 13.325C16.3811 14.4077 16.5387 15.6444 16.2828 16.8292C16.0269 18.0141 15.3729 19.0755 14.4297 19.8368C13.4864 20.5981 12.3108 21.0133 11.0987 21.0133C9.88653 21.0133 8.71096 20.5981 7.7677 19.8368C6.82443 19.0755 6.1704 18.0141 5.9145 16.8292C5.6586 15.6444 5.81627 14.4077 6.36126 13.325C6.90625 12.2422 7.80567 11.3789 8.90977 10.8786L2.63371 7.67091C2.06129 7.37858 1.57373 6.94387 1.21793 6.40859C0.862131 5.87331 0.65006 5.25548 0.60212 4.61453L0.591633 4.33586V2.24734C0.591633 1.65131 0.828405 1.07969 1.24986 0.658229C1.67132 0.236772 2.24294 0 2.83897 0H19.3584ZM11.0987 11.9034C10.5991 11.9034 10.1045 12.0018 9.64295 12.1929C9.18143 12.3841 8.76208 12.6643 8.40885 13.0175C8.05562 13.3708 7.77541 13.7901 7.58425 14.2517C7.39308 14.7132 7.29469 15.2078 7.29469 15.7074C7.29469 16.2069 7.39308 16.7016 7.58425 17.1631C7.77541 17.6246 8.05562 18.044 8.40885 18.3972C8.76208 18.7504 9.18143 19.0306 9.64295 19.2218C10.1045 19.413 10.5991 19.5114 11.0987 19.5114C12.1076 19.5114 13.0751 19.1106 13.7885 18.3972C14.5019 17.6838 14.9027 16.7163 14.9027 15.7074C14.9027 14.6985 14.5019 13.7309 13.7885 13.0175C13.0751 12.3042 12.1076 11.9034 11.0987 11.9034ZM14.9986 1.49822H7.19281V8.31964L10.7586 10.1415C10.8641 10.1954 10.9809 10.2235 11.0994 10.2235C11.2179 10.2235 11.3347 10.1954 11.4403 10.1415L14.9986 8.32263V1.49673V1.49822Z" fill="black"/>
</svg>
