<svg width="22" height="20" viewBox="0 0 22 20" fill="none" xmlns="http://www.w3.org/2000/svg">
<path d="M21.2889 7.14313H19.9095V3.57179C19.9095 3.38235 19.8345 3.20068 19.7012 3.06673C19.5678 2.93277 19.387 2.85752 19.1984 2.85752H2.13316C1.94457 2.85752 1.76371 2.78227 1.63037 2.64832C1.49702 2.51436 1.4221 2.33269 1.4221 2.14325C1.4221 1.95382 1.49702 1.77214 1.63037 1.63819C1.76371 1.50424 1.94457 1.42898 2.13316 1.42898H18.914C19.1026 1.42898 19.2834 1.35373 19.4168 1.21978C19.5501 1.08583 19.625 0.904151 19.625 0.714715C19.625 0.525279 19.5501 0.343602 19.4168 0.209651C19.2834 0.0756994 19.1026 0.000446169 18.914 0.000446169H2.13316C1.85861 -0.00523954 1.58565 0.0434646 1.32985 0.143777C1.07405 0.244089 0.840427 0.394043 0.642334 0.585073C0.44424 0.776103 0.285554 1.00447 0.175341 1.25712C0.0651273 1.50977 0.00554576 1.78175 0 2.05754V17.0572C0.00093069 17.4452 0.0780479 17.8292 0.226935 18.1872C0.375822 18.5452 0.593554 18.8702 0.867661 19.1435C1.14177 19.4169 1.46687 19.6332 1.82433 19.7802C2.1818 19.9272 2.56462 20.0018 2.95087 20H19.1984C19.387 20 19.5678 19.9247 19.7012 19.7908C19.8345 19.6568 19.9095 19.4751 19.9095 19.2857V15.7144H21.2889C21.3786 15.7212 21.4688 15.7095 21.5539 15.6801C21.639 15.6507 21.7173 15.6041 21.7838 15.5433C21.8504 15.4824 21.9039 15.4086 21.9411 15.3262C21.9782 15.2439 21.9983 15.1548 21.9999 15.0644V7.92168C22.0023 7.72539 21.93 7.53558 21.7979 7.39093C21.6658 7.24628 21.4838 7.15766 21.2889 7.14313ZM20.6205 14.2858H14.5197C13.791 14.2597 13.1024 13.9442 12.6051 13.4085C12.1078 12.8728 11.8425 12.1608 11.8675 11.4287C11.8425 10.6967 12.1078 9.98465 12.6051 9.44896C13.1024 8.91327 13.791 8.59774 14.5197 8.57167H20.6205V14.2858Z" fill="white"/>
</svg>
